<svg width="46.117188" height="45.000000" viewBox="0 0 46.1172 45" fill="none" xmlns="http://www.w3.org/2000/svg" xmlns:xlink="http://www.w3.org/1999/xlink">
	<desc>
			Created with Pixso.
	</desc>
	<defs/>
	<path id="Vector" d="M23.05 0C20.03 0 17.03 0.59 14.23 1.75C11.43 2.91 8.89 4.61 6.75 6.75C2.42 11.07 0 16.94 0 23.05C0 33.25 6.61 41.89 15.77 44.96C16.92 45.14 17.29 44.43 17.29 43.81L17.29 39.91C10.9 41.29 9.54 36.82 9.54 36.82C8.48 34.14 6.98 33.43 6.98 33.43C4.88 32 7.14 32.05 7.14 32.05C9.45 32.21 10.67 34.42 10.67 34.42C12.68 37.93 16.07 36.89 17.38 36.34C17.59 34.84 18.19 33.82 18.83 33.25C13.71 32.67 8.34 30.69 8.34 21.9C8.34 19.34 9.22 17.29 10.72 15.65C10.49 15.08 9.68 12.68 10.95 9.56C10.95 9.56 12.88 8.94 17.29 11.92C19.11 11.41 21.09 11.16 23.05 11.16C25.01 11.16 27 11.41 28.82 11.92C33.22 8.94 35.16 9.56 35.16 9.56C36.43 12.68 35.62 15.08 35.39 15.65C36.89 17.29 37.77 19.34 37.77 21.9C37.77 30.71 32.37 32.65 27.23 33.22C28.06 33.94 28.82 35.34 28.82 37.49L28.82 43.81C28.82 44.43 29.19 45.17 30.36 44.96C39.52 41.87 46.11 33.25 46.11 23.05C46.11 20.03 45.52 17.03 44.36 14.23C43.2 11.43 41.5 8.89 39.36 6.75C37.22 4.61 34.68 2.91 31.88 1.75C29.08 0.59 26.08 0 23.05 0Z" fill="#CEB7FF" fill-opacity="1.000000" fill-rule="nonzero"/>
</svg>
